<svg viewBox="0 0 120 120" xmlns="http://www.w3.org/2000/svg">
  <defs>
    <radialGradient id="sc" cx="50%" cy="50%" r="50%">
      <stop offset="0%" stop-color="#ff2222" stop-opacity="0.85"/>
      <stop offset="40%" stop-color="#880000" stop-opacity="0.65"/>
      <stop offset="80%" stop-color="#1a0000" stop-opacity="0.5"/>
      <stop offset="100%" stop-color="#000000" stop-opacity="0.92"/>
    </radialGradient>
    <radialGradient id="aura" cx="50%" cy="50%" r="50%">
      <stop offset="58%" stop-color="#cc0000" stop-opacity="0"/>
      <stop offset="82%" stop-color="#ff2200" stop-opacity="0.28"/>
      <stop offset="100%" stop-color="#ff0000" stop-opacity="0"/>
    </radialGradient>
    <filter id="glow">
      <feGaussianBlur stdDeviation="2" result="b"/>
      <feMerge><feMergeNode in="b"/><feMergeNode in="SourceGraphic"/></feMerge>
    </filter>
  </defs>
  <circle cx="60" cy="60" r="56" fill="url(#aura)"/>
  <circle cx="60" cy="60" r="46" fill="url(#sc)"/>
  <circle cx="60" cy="60" r="46" fill="none" stroke="#ff3333" stroke-width="0.7" stroke-opacity="0.3"/>
  <path d="M 28 30 A 46 46 0 0 1 92 28" fill="none" stroke="#ffffff" stroke-width="1" stroke-opacity="0.15" stroke-linecap="round"/>
  <g filter="url(#glow)">
    <g stroke="#ff4d4d" stroke-width="1.8" opacity="0.92">
      <line x1="60" y1="28" x2="88" y2="46"/>
      <line x1="60" y1="28" x2="32" y2="46"/>
      <line x1="88" y1="46" x2="60" y2="88"/>
      <line x1="32" y1="46" x2="60" y2="88"/>
      <line x1="60" y1="28" x2="60" y2="88"/>
      <line x1="88" y1="46" x2="60" y2="62"/>
      <line x1="32" y1="46" x2="60" y2="62"/>
    </g>
    <g fill="#ffcccc">
      <circle cx="60" cy="28" r="3.5"/>
      <circle cx="88" cy="46" r="3.5"/>
      <circle cx="32" cy="46" r="3.5"/>
      <circle cx="60" cy="88" r="3.5"/>
      <circle cx="60" cy="62" r="2.8"/>
    </g>
  </g>
</svg>
